<?xml version="1.0" encoding="utf-8"?>
<!-- Svg Vector Icons : http://www.onlinewebfonts.com/icon -->
<!DOCTYPE svg PUBLIC "-//W3C//DTD SVG 1.1//EN" "http://www.w3.org/Graphics/SVG/1.1/DTD/svg11.dtd">
<svg version="1.1" xmlns="http://www.w3.org/2000/svg" xmlns:xlink="http://www.w3.org/1999/xlink" x="0px" y="0px" viewBox="0 0 1000 1000" enable-background="new 0 0 1000 1000" xml:space="preserve">
<metadata> Svg Vector Icons : http://www.onlinewebfonts.com/icon </metadata>
<g><g transform="translate(0.000000,511.000000) scale(0.100000,-0.100000)"><path fill="#f5426c" d="M4870.8,4969.6c-122-58.8-869.2-958.5-1472.6-1768.9c-1287.4-1725.3-2002-3104.3-2100-4038.8c-37-366,30.5-914.9,163.4-1341.9c296.3-934.6,978.1-1744.9,1838.6-2187.1c1091.4-559.8,2296-564.2,3383.1-10.9c335.5,172.1,586,350.7,873.5,629.6c518.5,496.7,869.2,1095.7,1039.1,1773.2c126.3,494.5,150.3,999.9,67.5,1398.5C8441.3,499.5,7511.1,2089.7,6005.8,3974.1c-172.1,215.7-427,522.8-564.2,684C5136.6,5013.2,5049.5,5061.1,4870.8,4969.6z"/></g></g>
</svg>